<?xml version="1.0" encoding="UTF-8" standalone="no"?>
<!-- Created with Inkscape (http://www.inkscape.org/) -->

<svg
   xmlns:dc="http://purl.org/dc/elements/1.1/"
   xmlns:cc="http://creativecommons.org/ns#"
   xmlns:rdf="http://www.w3.org/1999/02/22-rdf-syntax-ns#"
   xmlns:svg="http://www.w3.org/2000/svg"
   xmlns="http://www.w3.org/2000/svg"
   xmlns:sodipodi="http://sodipodi.sourceforge.net/DTD/sodipodi-0.dtd"
   xmlns:inkscape="http://www.inkscape.org/namespaces/inkscape"
   width="335.27951mm"
   height="36.372799mm"
   viewBox="0 0 335.27951 36.372799"
   version="1.1"
   id="svg8"
   inkscape:version="0.92.4 5da689c313, 2019-01-14"
   sodipodi:docname="rcarrenho_black.svg">
  <defs
     id="defs2" />
  <sodipodi:namedview
     id="base"
     pagecolor="#ffffff"
     bordercolor="#666666"
     borderopacity="1.0"
     inkscape:pageopacity="0.0"
     inkscape:pageshadow="2"
     inkscape:zoom="0.70000001"
     inkscape:cx="628.7898"
     inkscape:cy="-206.48049"
     inkscape:document-units="mm"
     inkscape:current-layer="layer1"
     showgrid="false"
     inkscape:window-width="2560"
     inkscape:window-height="1040"
     inkscape:window-x="1366"
     inkscape:window-y="0"
     inkscape:window-maximized="1"
     fit-margin-top="0"
     fit-margin-left="0"
     fit-margin-right="0"
     fit-margin-bottom="0" />
  <metadata
     id="metadata5">
    <rdf:RDF>
      <cc:Work
         rdf:about="">
        <dc:format>image/svg+xml</dc:format>
        <dc:type
           rdf:resource="http://purl.org/dc/dcmitype/StillImage" />
        <dc:title></dc:title>
      </cc:Work>
    </rdf:RDF>
  </metadata>
  <g
     inkscape:label="Camada 1"
     inkscape:groupmode="layer"
     id="layer1"
     transform="translate(11.50398,-191.4099)">
    <g
       id="g873">
      <path
         d="m 12.270419,227.3763 -7.6707996,-10.922 q -1.4224,0.1016 -2.2352,0.1016 h -8.7883998 v 10.8204 H -11.50398 v -35.56 H 2.3644194 q 6.9087999,0 10.8711996,3.302 3.9624,3.302 3.9624,9.0932 0,4.1148 -2.032,7.0104 -2.032,2.8956 -5.7911997,4.2164 l 8.4327997,11.938 z M 2.2120194,212.2379 q 4.826,0 7.3659999,-2.0828 2.5399997,-2.0828 2.5399997,-5.9436 0,-3.8608 -2.5399997,-5.8928 -2.5399999,-2.0828 -7.3659999,-2.0828 h -8.6359998 v 16.002 z"
         style="font-style:normal;font-variant:normal;font-weight:normal;font-stretch:normal;font-size:50.79999924px;line-height:1.25;font-family:Montserrat;-inkscape-font-specification:Montserrat;letter-spacing:0px;word-spacing:0px;fill:#000000;fill-opacity:1;stroke:none;stroke-width:0.26458332"
         id="path836"
         inkscape:connector-curvature="0" />
      <path
         d="m 41.327984,227.7827 q -5.334,0 -9.652,-2.3368 -4.2672,-2.3876 -6.7056,-6.5024 -2.4384,-4.1656 -2.4384,-9.3472 0,-5.1816 2.4384,-9.2964 2.4384,-4.1656 6.7564,-6.5024 4.318,-2.3876 9.652,-2.3876 4.1656,0 7.62,1.4224 3.4544,1.3716 5.8928,4.1148 l -3.302,3.2004 q -4.0132,-4.2164 -10.0076,-4.2164 -3.9624,0 -7.1628,1.778 -3.2004,1.778 -5.0292,4.9276 -1.778,3.0988 -1.778,6.9596 0,3.8608 1.778,7.0104 1.8288,3.0988 5.0292,4.8768 3.2004,1.778 7.1628,1.778 5.9436,0 10.0076,-4.2672 l 3.302,3.2004 q -2.4384,2.7432 -5.9436,4.1656 -3.4544,1.4224 -7.62,1.4224 z"
         style="font-style:normal;font-variant:normal;font-weight:normal;font-stretch:normal;font-size:50.79999924px;line-height:1.25;font-family:Montserrat;-inkscape-font-specification:Montserrat;letter-spacing:0px;word-spacing:0px;fill:#3fd660;fill-opacity:1;stroke:none;stroke-width:0.26458332"
         id="path838"
         inkscape:connector-curvature="0" />
      <path
         d="m 83.949153,218.4863 h -18.8976 l -3.9116,8.89 h -5.2324 l 16.1036,-35.56 h 5.0292 l 16.154399,35.56 h -5.333999 z m -1.778,-4.064 -7.6708,-17.4244 -7.6708,17.4244 z"
         style="font-style:normal;font-variant:normal;font-weight:normal;font-stretch:normal;font-size:50.79999924px;line-height:1.25;font-family:Montserrat;-inkscape-font-specification:Montserrat;letter-spacing:0px;word-spacing:0px;fill:#000000;fill-opacity:1;stroke:none;stroke-width:0.26458332"
         id="path840"
         inkscape:connector-curvature="0" />
      <path
         d="m 122.25228,227.3763 -7.6708,-10.922 q -1.4224,0.1016 -2.2352,0.1016 h -8.7884 v 10.8204 h -5.080003 v -35.56 h 13.868403 q 6.9088,0 10.8712,3.302 3.9624,3.302 3.9624,9.0932 0,4.1148 -2.032,7.0104 -2.032,2.8956 -5.7912,4.2164 l 8.4328,11.938 z m -10.0584,-15.1384 q 4.826,0 7.366,-2.0828 2.54,-2.0828 2.54,-5.9436 0,-3.8608 -2.54,-5.8928 -2.54,-2.0828 -7.366,-2.0828 h -8.636 v 16.002 z"
         style="font-style:normal;font-variant:normal;font-weight:normal;font-stretch:normal;font-size:50.79999924px;line-height:1.25;font-family:Montserrat;-inkscape-font-specification:Montserrat;letter-spacing:0px;word-spacing:0px;fill:#000000;fill-opacity:1;stroke:none;stroke-width:0.26458332"
         id="path842"
         inkscape:connector-curvature="0" />
      <path
         d="m 159.18384,227.3763 -7.6708,-10.922 q -1.4224,0.1016 -2.2352,0.1016 h -8.7884 v 10.8204 h -5.08 v -35.56 h 13.8684 q 6.9088,0 10.8712,3.302 3.9624,3.302 3.9624,9.0932 0,4.1148 -2.032,7.0104 -2.032,2.8956 -5.7912,4.2164 l 8.4328,11.938 z m -10.0584,-15.1384 q 4.826,0 7.366,-2.0828 2.54,-2.0828 2.54,-5.9436 0,-3.8608 -2.54,-5.8928 -2.54,-2.0828 -7.366,-2.0828 h -8.636 v 16.002 z"
         style="font-style:normal;font-variant:normal;font-weight:normal;font-stretch:normal;font-size:50.79999924px;line-height:1.25;font-family:Montserrat;-inkscape-font-specification:Montserrat;letter-spacing:0px;word-spacing:0px;fill:#000000;fill-opacity:1;stroke:none;stroke-width:0.26458332"
         id="path844"
         inkscape:connector-curvature="0" />
      <path
         d="m 198.14741,222.9567 v 4.4196 h -25.8064 v -35.56 h 25.0952 v 4.4196 h -20.0152 v 10.922 h 17.8308 v 4.318 h -17.8308 v 11.4808 z"
         style="font-style:normal;font-variant:normal;font-weight:normal;font-stretch:normal;font-size:50.79999924px;line-height:1.25;font-family:Montserrat;-inkscape-font-specification:Montserrat;letter-spacing:0px;word-spacing:0px;fill:#000000;fill-opacity:1;stroke:none;stroke-width:0.26458332"
         id="path846"
         inkscape:connector-curvature="0" />
      <path
         d="m 236.95851,191.8163 v 35.56 h -4.1656 l -21.336,-26.5176 v 26.5176 h -5.08 v -35.56 h 4.1656 l 21.336,26.5176 v -26.5176 z"
         style="font-style:normal;font-variant:normal;font-weight:normal;font-stretch:normal;font-size:50.79999924px;line-height:1.25;font-family:Montserrat;-inkscape-font-specification:Montserrat;letter-spacing:0px;word-spacing:0px;fill:#000000;fill-opacity:1;stroke:none;stroke-width:0.26458332"
         id="path848"
         inkscape:connector-curvature="0" />
      <path
         d="m 278.20802,191.8163 v 35.56 h -5.08 v -15.8496 h -20.4216 v 15.8496 h -5.08 v -35.56 h 5.08 v 15.2908 h 20.4216 v -15.2908 z"
         style="font-style:normal;font-variant:normal;font-weight:normal;font-stretch:normal;font-size:50.79999924px;line-height:1.25;font-family:Montserrat;-inkscape-font-specification:Montserrat;letter-spacing:0px;word-spacing:0px;fill:#000000;fill-opacity:1;stroke:none;stroke-width:0.26458332"
         id="path850"
         inkscape:connector-curvature="0" />
      <path
         d="m 304.92873,227.7827 q -5.3848,0 -9.7028,-2.3368 -4.318,-2.3876 -6.8072,-6.5532 -2.4384,-4.1656 -2.4384,-9.2964 0,-5.1308 2.4384,-9.2964 2.4892,-4.1656 6.8072,-6.5024 4.318,-2.3876 9.7028,-2.3876 5.334,0 9.652,2.3876 4.318,2.3368 6.7564,6.5024 2.4384,4.1148 2.4384,9.2964 0,5.1816 -2.4384,9.3472 -2.4384,4.1148 -6.7564,6.5024 -4.318,2.3368 -9.652,2.3368 z m 0,-4.5212 q 3.9116,0 7.0104,-1.778 3.1496,-1.778 4.9276,-4.8768 1.8288,-3.1496 1.8288,-7.0104 0,-3.8608 -1.8288,-6.9596 -1.778,-3.1496 -4.9276,-4.9276 -3.0988,-1.778 -7.0104,-1.778 -3.9116,0 -7.112,1.778 -3.1496,1.778 -4.9784,4.9276 -1.778,3.0988 -1.778,6.9596 0,3.8608 1.778,7.0104 1.8288,3.0988 4.9784,4.8768 3.2004,1.778 7.112,1.778 z"
         style="font-style:normal;font-variant:normal;font-weight:normal;font-stretch:normal;font-size:50.79999924px;line-height:1.25;font-family:Montserrat;-inkscape-font-specification:Montserrat;letter-spacing:0px;word-spacing:0px;fill:#000000;fill-opacity:1;stroke:none;stroke-width:0.26458332"
         id="path852"
         inkscape:connector-curvature="0" />
    </g>
  </g>
</svg>
